<?xml version="1.0" encoding="UTF-8"?>
<svg id="Layer_2" data-name="Layer 2" xmlns="http://www.w3.org/2000/svg" viewBox="0 0 688.71 613.81">
  <defs>
    <style>
      .cls-1 {
        fill: #736974;
      }
    </style>
  </defs>
  <g id="Layer_1-2" data-name="Layer 1">
    <g>
      <path class="cls-1" d="M499.97,419.98l-63.99-69.23-26.91-29.09-16.22-17.56-26.91-29.09-1.34-1.45-29.09-31.45-69.37-75.04-29.09-31.49L120.28,9.27H19.27v4.73c9.67,0,17.89,3.64,24.62,10.91,6.69,7.27,11.2,15.2,13.45,23.78,2.29,8.54,3.45,17.09,3.45,25.67V456.78c-1.45,18.29-8.44,35.89-20.98,52.87-12.58,16.98-25.85,25.49-39.81,25.49v4.25H138.67v-4.25c-13.96,0-27.09-8.15-39.38-24.43-12.25-16.25-19.27-33.49-20.98-51.78V66.65L237.06,244.62l29.09,32.61,69.37,77.77,29.09,32.61,135.36,151.76h17.52v-188.63h-17.52v69.23Z"/>
      <path class="cls-1" d="M517.5,275.02v-92.72c1.71-20.25,8.62-37.85,20.76-52.83,12.15-14.98,25.6-22.47,40.47-22.47v-4.73h-139.55v4.73c14.54,0,27.89,7.56,40.03,22.69,12.11,15.13,19.02,32.94,20.76,53.48v91.84h17.52Z"/>
      <path class="cls-1" d="M604.69,292.44c-16.25,12.29-34.36,9.96-52.61,11.67h-119.62l16.25,17.56h101.22c18.25,1.42,36.72,17.71,53.7,30.29,16.98,12.54,25.49,25.82,25.49,39.81h4.25V253.06h-4.25c0,14-8.15,27.12-24.43,39.38Z"/>
      <path class="cls-1" d="M338.94,576.33c-2.29-8.11-3.42-16.33-3.42-24.58v-153.03l-69.37-77.77v230.81c0,8.25-1.13,16.47-3.42,24.58-2.29,8.14-6.69,15.71-13.27,22.69-6.54,7.02-14.69,10.51-24.4,10.51v4.29h151.55v-4.29c-9.71,0-17.85-3.49-24.4-10.51-6.58-6.98-10.98-14.54-13.27-22.69Z"/>
      <path class="cls-1" d="M669.44,0H225.06V4.69c13.13,0,22.98,5.2,29.52,15.63,6.58,10.4,10.44,22.32,11.56,35.74V124.2l69.37,75.04V17.53h247.06c17.09,1.16,37.6,12.14,61.41,32.98,23.81,20.83,37.74,37.67,41.74,50.5h2.98L669.44,0Z"/>
    </g>
  </g>
</svg>