<?xml version="1.0" encoding="UTF-8" standalone="no"?>
<!-- Generator: Adobe Illustrator 27.5.0, SVG Export Plug-In . SVG Version: 6.00 Build 0)  -->

<svg
   version="1.1"
   x="0px"
   y="0px"
   viewBox="0 0 137.8629 145.19981"
   xml:space="preserve"
   id="svg8"
   width="137.8629"
   height="145.19981"
   xmlns="http://www.w3.org/2000/svg"
   xmlns:svg="http://www.w3.org/2000/svg"><defs
   id="defs8" />

<g
   id="OBJECTS"
   transform="translate(-47.854243,-333.49687)">
	<path
   style="fill:#736974;fill-opacity:1"
   d="m 134.933,400.361 c -0.024,-0.003 -0.041,-0.006 -0.064,-0.009 0.004,-0.012 0.01,-0.023 0.014,-0.035 z m -33.253,-8.409 c 0.022,-0.003 0.036,0.007 0.057,0.007 -0.005,-0.016 -0.009,-0.03 -0.014,-0.046 z m 0.564,44.875 c 0.006,-0.026 0.009,-0.052 0.014,-0.078 -0.024,0.011 -0.036,0.03 -0.063,0.04 0,-10e-4 0.049,0.038 0.049,0.038 z m 25.759,9.067 c 0.014,0.018 0.026,0.037 0.04,0.054 0.004,-0.031 -0.005,-0.057 0.001,-0.088 10e-4,0 -0.01,0.008 -0.02,0.017 l 0.021,-0.018 c -0.016,-0.02 -0.034,-0.039 -0.05,-0.06 0.002,0.032 0.003,0.065 0.008,0.095 z M 94.192,403.998 c 0.03,-0.004 0.051,-0.007 0.08,-0.011 -0.012,-0.013 -0.024,-0.025 -0.036,-0.038 z m 90.135,9.812 c -0.719,0.684 -1.58,1.298 -2.487,1.691 -1.535,0.665 -3.127,1.255 -4.75,1.65 -3.604,0.878 -7.29,1.267 -10.988,1.516 -2.519,0.169 -5.04,0.296 -7.56,0.453 -0.228,0.014 -0.45,0.112 -0.678,0.172 0.071,0.69 0.64,0.743 1.062,0.941 3.813,1.785 7.583,3.657 11.109,5.965 1.685,1.103 3.297,2.328 4.879,3.578 0.996,0.787 1.763,1.795 2.19,3.03 0.748,2.162 -0.042,3.855 -2.247,4.543 -0.873,0.273 -1.814,0.446 -2.725,0.449 -1.508,0.005 -3.016,-0.166 -4.524,-0.259 -0.712,-0.044 -1.43,-0.379 -2.373,0.05 0.509,0.504 0.93,0.881 1.305,1.299 1.233,1.377 2.482,2.741 3.656,4.168 0.473,0.575 0.861,1.263 1.123,1.961 0.631,1.679 -0.178,3.11 -1.944,3.345 -0.897,0.119 -1.851,0.029 -2.75,-0.133 -1.838,-0.331 -3.516,-1.131 -5.151,-2.011 -0.733,-0.394 -1.455,-0.808 -2.143,-1.192 -0.574,0.401 -0.268,0.789 -0.14,1.146 1.191,3.341 2.038,6.759 2.435,10.29 0.143,1.276 0.103,2.524 -0.269,3.748 -0.598,1.969 -1.979,2.84 -4.031,2.604 -1.211,-0.14 -2.256,-0.665 -3.202,-1.391 -0.79,-0.606 -1.538,-1.268 -2.5,-2.069 -0.127,1.035 0.303,1.778 0.338,2.552 0.038,0.827 0.128,1.693 -0.058,2.482 -0.355,1.512 -1.522,2.152 -3.072,1.89 -1.132,-0.191 -1.991,-0.865 -2.829,-1.574 -0.686,-0.581 -1.363,-1.172 -2.376,-2.046 0.127,1.086 0.158,1.728 0.284,2.35 0.403,1.996 0.525,4.009 0.319,6.027 -0.084,0.823 -0.278,1.672 -0.612,2.425 -0.798,1.795 -2.377,2.412 -4.168,1.565 -0.971,-0.459 -1.878,-1.131 -2.684,-1.852 -2.586,-2.311 -4.79,-4.962 -6.649,-7.891 -1.538,-2.424 -2.749,-5.012 -3.785,-7.686 -0.3,-0.774 -0.631,-1.535 -0.943,-2.29 -0.644,0.02 -0.41,0.474 -0.449,0.736 -0.048,0.329 0,0.671 0.005,1.008 0.073,4.999 -0.537,9.911 -2.005,14.693 -0.442,1.439 -0.986,2.88 -1.718,4.189 -1.917,3.429 -4.658,3.664 -7.282,0.729 -1.137,-1.272 -1.944,-2.747 -2.563,-4.32 -1.02,-2.592 -1.736,-5.269 -2.127,-8.03 -0.177,-1.247 -0.363,-2.493 -0.601,-4.121 -0.344,0.744 -0.613,1.181 -0.753,1.656 -0.79,2.669 -1.778,5.257 -3.057,7.731 -0.97,1.877 -2.094,3.658 -3.55,5.193 -0.688,0.726 -1.457,1.414 -2.296,1.951 -1.676,1.073 -3.168,0.813 -4.48,-0.718 -1.472,-1.716 -2.167,-3.773 -2.441,-5.987 -0.394,-3.184 -0.457,-6.375 -0.188,-9.575 0.088,-1.045 0.265,-2.102 0.04,-3.508 -0.631,0.748 -1.06,1.23 -1.46,1.735 -1.934,2.447 -3.967,4.808 -6.345,6.836 -0.89,0.759 -1.846,1.499 -2.889,2.007 -2.914,1.418 -5.41,0.239 -6.183,-2.925 -0.296,-1.211 -0.389,-2.502 -0.367,-3.753 0.043,-2.45 0.426,-4.869 1.322,-7.164 0.856,-2.192 1.81,-4.345 2.72,-6.515 0.185,-0.441 0.37,-0.882 0.565,-1.347 -0.852,-0.26 -1.207,0.333 -1.661,0.62 -3.072,1.937 -6.293,3.571 -9.716,4.784 -1.105,0.392 -2.26,0.644 -3.397,0.942 -0.324,0.085 -0.662,0.131 -0.997,0.154 -3.335,0.239 -4.888,-1.533 -4.182,-4.827 0.431,-2.01 1.429,-3.762 2.663,-5.388 1.792,-2.361 3.958,-4.354 6.16,-6.315 0.604,-0.538 1.383,-0.934 1.82,-1.949 -2.102,0.278 -4.001,0.544 -5.904,0.775 -1.931,0.235 -3.869,0.296 -5.772,-0.182 -0.72,-0.181 -1.466,-0.438 -2.075,-0.847 -1.24,-0.832 -1.522,-2.309 -0.684,-3.547 0.464,-0.686 1.05,-1.337 1.708,-1.837 1.604,-1.221 3.28,-2.348 4.931,-3.506 0.533,-0.374 1.079,-0.729 1.913,-1.29 -1.233,-0.268 -2.105,-0.477 -2.985,-0.646 -2.319,-0.446 -4.601,-1.031 -6.761,-1.996 -1.071,-0.479 -2.128,-1.021 -3.108,-1.661 -0.765,-0.5 -1.485,-1.124 -2.079,-1.818 -2.153,-2.509 -1.62,-4.989 1.41,-6.217 1.627,-0.659 3.373,-1.026 5.071,-1.508 0.951,-0.27 1.913,-0.504 2.823,-0.742 0.11,-0.772 -0.442,-0.764 -0.768,-0.917 -1.673,-0.787 -3.392,-1.484 -5.033,-2.333 -0.961,-0.497 -1.879,-1.139 -2.679,-1.867 -0.669,-0.61 -1.265,-1.375 -1.67,-2.184 -0.929,-1.854 -0.405,-3.476 1.408,-4.503 0.797,-0.451 1.673,-0.815 2.559,-1.049 1.623,-0.43 3.28,-0.733 4.922,-1.09 0.389,-0.084 0.778,-0.168 1.116,-0.242 0.155,-0.739 -0.379,-0.807 -0.689,-0.999 -1.712,-1.065 -3.505,-2.013 -5.144,-3.178 -1.081,-0.769 -2.013,-1.781 -2.892,-2.788 -0.8,-0.916 -1.283,-2.048 -0.701,-3.264 0.572,-1.194 1.719,-1.522 2.946,-1.623 2.128,-0.175 4.198,0.234 6.25,0.691 2.051,0.457 4.075,1.036 6.115,1.543 0.452,0.112 0.923,0.148 1.838,0.288 -0.78,-0.778 -1.239,-1.237 -1.7,-1.695 -2.088,-2.074 -4.259,-4.073 -6.234,-6.25 -1.116,-1.23 -1.999,-2.704 -2.813,-4.165 -0.431,-0.775 -0.615,-1.747 -0.687,-2.647 -0.098,-1.234 0.561,-2.046 1.73,-2.486 1.139,-0.428 2.31,-0.399 3.488,-0.234 2.762,0.388 5.452,1.091 8.042,2.099 2.741,1.067 5.421,2.289 8.13,3.439 0.433,0.184 0.815,0.59 1.514,0.288 -0.572,-0.752 -1.114,-1.476 -1.669,-2.19 -2.635,-3.393 -5.189,-6.838 -7.154,-10.68 -1.232,-2.409 -2.235,-4.894 -2.638,-7.593 -0.164,-1.101 -0.122,-2.177 0.185,-3.249 0.601,-2.1 1.885,-3.071 4.039,-3.078 1.575,-0.005 2.957,0.606 4.293,1.329 2.971,1.61 5.667,3.624 8.293,5.737 0.581,0.468 1.167,0.93 2.11,1.681 -0.263,-1.698 -0.522,-2.931 -0.623,-4.176 -0.067,-0.824 -0.016,-1.692 0.172,-2.495 0.308,-1.318 1.349,-1.93 2.688,-1.619 0.788,0.183 1.535,0.544 2.5,0.898 0.078,-0.95 0.161,-1.762 0.209,-2.576 0.097,-1.631 0.551,-3.152 1.45,-4.513 0.366,-0.553 0.812,-1.089 1.328,-1.498 0.849,-0.673 1.823,-0.78 2.851,-0.336 1.123,0.486 1.992,1.294 2.655,2.267 1.182,1.736 2.256,3.544 3.38,5.319 0.486,0.768 0.748,1.691 1.684,2.439 0.175,-0.68 0.323,-1.211 0.448,-1.746 0.437,-1.88 0.79,-3.783 1.323,-5.634 0.397,-1.381 1.169,-2.605 2.201,-3.639 2.655,-2.659 5.746,-2.462 7.959,0.553 0.544,0.741 0.935,1.593 1.4,2.392 0.242,0.416 0.49,0.827 0.884,1.493 0.508,-0.969 0.9,-1.672 1.25,-2.396 0.97,-2.001 2.282,-3.728 4.047,-5.092 3.51,-2.714 6.744,-2.254 9.303,1.372 1.836,2.602 2.81,5.526 3.056,8.703 0.062,0.807 -0.128,1.68 0.514,2.55 0.555,-0.472 1.033,-0.906 1.54,-1.304 0.991,-0.777 1.985,-1.55 3.003,-2.29 0.335,-0.243 0.738,-0.405 1.127,-0.56 2.901,-1.161 5.124,0.189 5.195,3.329 0.033,1.487 -0.289,3.01 -0.642,4.471 -0.696,2.884 -2.07,5.499 -3.474,8.093 -0.424,0.785 -1.011,1.51 -1.176,2.432 0.723,0.24 1.002,-0.285 1.356,-0.558 2.802,-2.17 5.763,-4.095 8.911,-5.719 1.267,-0.654 2.598,-1.19 3.926,-1.715 0.619,-0.245 1.292,-0.408 1.954,-0.48 1.896,-0.204 3.344,0.955 3.393,2.866 0.025,0.977 -0.208,2.017 -0.566,2.934 -0.518,1.325 -1.243,2.571 -1.902,3.839 -0.424,0.816 -0.887,1.612 -1.317,2.39 0.443,0.537 0.812,0.173 1.15,0.025 2.851,-1.247 5.685,-2.535 8.547,-3.758 1.079,-0.461 2.194,-0.886 3.335,-1.141 1.791,-0.4 2.928,0.61 2.939,2.464 0.008,1.302 -0.412,2.502 -1.065,3.589 -0.779,1.295 -1.677,2.518 -2.534,3.765 -0.373,0.543 -0.774,1.068 -1.172,1.615 0.734,0.466 1.24,-0.003 1.749,-0.167 1.858,-0.596 3.743,-0.98 5.7,-0.937 0.588,0.013 1.185,0.025 1.759,0.136 2.962,0.575 4.136,3.039 2.735,5.706 -0.721,1.373 -1.836,2.392 -3.039,3.33 -0.566,0.442 -1.118,0.901 -1.927,1.554 0.872,0.23 1.439,0.323 1.962,0.529 1.088,0.429 2.251,0.771 3.204,1.414 1.77,1.195 2.209,3.169 1.371,5.137 -0.542,1.273 -1.422,2.297 -2.493,3.126 -1.195,0.925 -2.469,1.748 -3.712,2.611 -0.457,0.318 -0.923,0.623 -1.848,1.246 1.091,0.034 1.634,0.058 2.176,0.065 1.094,0.015 2.194,-0.048 3.279,0.052 0.738,0.068 1.503,0.26 2.173,0.574 1.196,0.56 1.629,1.778 1.042,2.971 -0.364,0.741 -0.865,1.459 -1.453,2.036 -1.079,1.058 -2.269,2.002 -3.411,2.996 -0.364,0.317 -0.722,0.64 -1.057,0.937 0.255,0.672 0.75,0.456 1.115,0.543 1.551,0.37 3.114,0.691 4.653,1.103 0.557,0.149 1.087,0.459 1.581,0.772 2.385,1.522 2.655,3.959 0.589,5.926 z m -13.788,-16.072 c -5.508,0.731 -10.937,1.878 -16.326,3.221 -5.874,1.464 -11.756,2.897 -17.628,4.369 -0.418,0.105 -1.037,0.004 -1.198,0.825 0.327,0.035 0.628,0.122 0.915,0.089 1.922,-0.215 3.837,-0.525 5.763,-0.675 7.474,-0.581 14.954,-0.733 22.443,-0.243 2.518,0.165 5.044,0.21 7.564,0.339 0.96,0.049 1.828,-0.14 2.636,-0.669 2.121,-1.387 4.096,-2.947 5.762,-4.867 0.181,-0.209 0.528,-0.488 0.118,-0.822 -8.86,2.326 -11.171,2.729 -14.507,2.382 5.136,-1.043 9.893,-1.57 14.193,-4.097 -0.564,-0.1 -1.123,-0.239 -1.691,-0.292 -2.701,-0.254 -5.377,0.086 -8.044,0.44 z m 2.947,-14.387 c -5.352,-0.619 -10.539,0.312 -15.663,1.811 -1.56,0.457 -2.938,1.123 -4.2,2.168 -3.834,3.173 -8.023,5.817 -12.478,8.031 -2.105,1.047 -4.257,1.999 -6.376,3.019 -0.423,0.204 -0.794,0.517 -1.166,0.764 0.456,1.076 0.476,1.107 1.267,1.208 -0.131,0.347 -0.301,0.687 -0.371,1.046 -0.125,0.642 0.204,0.94 1.094,1.073 -0.381,0.622 -1.03,1.22 -0.005,2.099 0.757,-0.208 1.64,-0.428 2.509,-0.693 8.535,-2.602 17.198,-4.703 25.95,-6.4 4.464,-0.866 8.492,-2.602 12.224,-5.111 0.902,-0.606 1.707,-1.36 2.529,-2.078 0.223,-0.195 0.345,-0.505 0.686,-1.026 -0.615,0.145 -0.946,0.169 -1.23,0.298 -2.698,1.222 -5.537,1.978 -8.419,2.604 -3.451,0.749 -6.914,1.454 -10.342,2.298 -7.273,1.791 -14.495,3.753 -21.267,7.064 -0.515,0.252 -1.114,0.331 -1.674,0.49 0.854,-0.52 1.68,-1.096 2.568,-1.551 4.2,-2.153 8.59,-3.855 13.15,-5.04 5.606,-1.457 11.252,-2.767 16.893,-4.088 3.528,-0.826 6.992,-1.811 10.233,-3.467 0.354,-0.181 0.676,-0.425 0.997,-0.63 -0.099,-1.599 -1.009,-2.464 -2.259,-2.855 -1.513,-0.472 -3.08,-0.853 -4.65,-1.034 z m -13.963,0.223 c 0.088,-0.038 0.171,-0.087 0.255,-0.135 -0.126,0.015 -0.252,0.03 -0.378,0.045 0.042,0.032 0.099,0.1 0.123,0.09 z m 16.547,-4.84 c -1.39,-0.191 -2.673,0.236 -3.977,0.49 -3.643,0.71 -7.173,1.816 -10.641,3.117 -0.56,0.21 -1.302,0.266 -1.5,1.03 0.314,-0.045 0.632,-0.069 0.936,-0.149 3.344,-0.885 6.714,-1.545 10.201,-1.53 1.543,0.007 3.721,-1.381 4.981,-2.958 z m -8.177,-4.935 c -1.061,0.364 -1.91,0.95 -2.633,1.833 -1.381,1.687 -2.862,3.292 -4.291,4.94 -0.247,0.285 -0.443,0.615 -0.787,1.101 0.489,-0.044 0.744,-0.012 0.954,-0.094 5.024,-1.977 10.224,-3.241 15.575,-3.923 1.321,-0.168 2.042,-0.919 2.318,-2.256 0.231,-1.119 -0.183,-2.087 -1.27,-2.421 -0.945,-0.291 -1.972,-0.431 -2.964,-0.435 -2.368,-0.012 -4.662,0.487 -6.902,1.255 z m -22.297,2.285 c -5.202,5.031 -10.008,10.435 -14.462,16.145 -0.399,0.512 -0.714,1.089 -1.103,1.692 0.396,0.369 0.686,0.639 1.055,0.982 0.6,-0.473 1.129,-0.863 1.63,-1.287 3.853,-3.261 7.555,-6.683 11.071,-10.309 1.168,-1.204 2.449,-2.3 3.701,-3.419 0.209,-0.186 0.472,-0.539 1.007,-0.066 -1.243,1.455 -2.646,2.761 -3.971,4.132 -1.343,1.39 -2.7,2.772 -4.117,4.085 -1.417,1.314 -2.926,2.528 -4.377,3.805 -1.429,1.257 -3.094,2.253 -4.291,3.686 0.225,0.669 0.535,0.981 1.133,0.793 0.162,0.492 -0.393,1.169 0.571,1.579 0.311,-0.128 0.782,-0.281 1.214,-0.508 2.16,-1.129 4.329,-2.242 6.459,-3.426 11.461,-6.373 20.669,-15.206 28.142,-25.907 0.762,-1.091 1.325,-2.332 1.886,-3.546 0.266,-0.574 0.433,-1.256 -0.129,-2.012 -0.332,0.274 -0.654,0.507 -0.936,0.78 -0.363,0.35 -0.671,0.758 -1.048,1.09 -0.266,0.234 -0.453,0.741 -0.972,0.465 -0.051,-0.877 1.172,-1.149 0.936,-2.217 -0.521,0.159 -1.003,0.27 -1.456,0.451 -1.793,0.72 -3.567,1.49 -5.367,2.19 -6.286,2.446 -11.758,6.163 -16.576,10.822 z m -16.073,30.076 c 1.22,-0.065 2.208,-0.101 3.192,-0.182 0.229,-0.019 0.446,-0.19 0.653,-0.284 0.148,-0.811 0.164,-1.543 -0.542,-2.13 -2.402,-0.385 -4.7,0.71 -7.602,0.767 2.555,-1.604 5.009,-1.644 7.42,-2.016 -0.171,-1.714 -0.824,-3.111 -1.761,-4.526 -0.907,0.266 -1.708,0.474 -2.489,0.74 -0.715,0.243 -1.393,0.604 -2.117,0.811 -0.726,0.208 -1.344,1.015 -2.258,0.572 0.105,-0.824 0.739,-0.978 1.218,-1.261 0.505,-0.298 1.043,-0.549 1.586,-0.772 0.543,-0.223 1.118,-0.366 1.663,-0.582 0.5,-0.198 1.162,-0.14 1.503,-0.913 -0.579,-0.6 -1.167,-1.184 -1.725,-1.793 -0.625,-0.683 -1.408,-0.795 -2.261,-0.701 -0.055,-0.426 0.262,-0.955 -0.416,-1.212 -0.437,-0.166 -0.799,-0.179 -1.165,0.115 -0.262,0.21 -0.535,0.408 -0.798,0.617 -0.659,0.523 -1.334,1.028 -1.966,1.581 -0.682,0.597 -1.322,1.241 -1.996,1.879 -0.15,-0.237 -0.325,-0.396 -0.294,-0.48 0.736,-2.031 2.69,-2.879 4.377,-4.295 -2.029,-0.835 -3.805,-1.747 -5.719,-0.181 -0.649,0.531 -1.403,0.933 -2.043,1.473 -0.609,0.513 -1.131,1.129 -1.917,1.93 0.755,-1.991 0.833,-2.078 2.193,-3.275 0.321,-0.282 0.972,-0.357 0.782,-1.039 -4.268,0.049 -9.335,1.579 -11.843,3.572 0.072,0.888 1.293,1.177 1.294,2.417 -0.922,-0.726 -1.636,-1.289 -2.463,-1.941 -0.592,0.525 -1.131,1.004 -1.639,1.455 0.707,1.294 2.07,1.853 2.619,3.361 -1.563,-0.531 -2.213,-2.042 -3.534,-2.445 -4.744,4.455 -6.291,11.357 -3.981,17.466 2.298,6.081 7.31,10.217 12.724,10.422 0.027,-0.315 0.047,-0.636 0.084,-0.954 0.039,-0.333 0.096,-0.664 0.208,-1.424 0.391,1.071 0.574,1.716 0.859,2.311 0.282,0.587 0.751,0.56 1.281,0.157 -0.155,-0.959 -0.33,-1.936 -0.459,-2.92 -0.037,-0.284 -0.153,-0.726 0.421,-0.667 0.762,1.205 0.476,2.82 1.526,3.957 2.753,0.226 5.394,-0.096 7.954,-1.041 0.168,-0.062 0.268,-0.304 0.412,-0.477 -3.736,-2.21 -4.226,-2.617 -5.26,-4.459 1.357,0.547 2.287,1.377 3.294,2.07 1.038,0.715 2.082,1.413 3.409,1.766 0.73,-0.435 1.634,-0.666 2.035,-1.623 -0.758,-0.628 -1.44,-1.192 -2.493,-2.064 1.768,0.191 2.56,1.419 3.813,1.607 0.749,-0.604 1.446,-1.179 1.855,-2.22 -2.308,-0.722 -4.746,-1.019 -6.738,-3.345 2.993,0.557 5.125,2.497 7.788,2.175 0.578,-0.735 1.115,-1.353 0.923,-2.248 -3.456,-0.586 -3.978,-0.78 -5.598,-2.164 2.261,0.353 4.236,1.313 6.476,0.688 0.608,-2.498 1.251,-4.972 1.309,-7.72 -0.748,0 -1.32,-0.007 -1.892,0.001 -0.944,0.013 -0.944,0.017 -1.902,-0.556 z m -1.878,17.905 c -0.319,-0.332 -0.747,-0.368 -0.892,0.403 0.884,0.765 1.809,1.565 2.734,2.365 0.092,-0.106 0.184,-0.212 0.275,-0.318 -0.7,-0.821 -1.371,-1.672 -2.117,-2.45 z m 2.341,-33.648 c -0.885,0.714 -0.894,0.735 -1.188,1.835 0.543,-0.649 1.137,-1.062 1.188,-1.835 z m 4.29,-16.512 c -2.736,5.495 -5.438,11.007 -8.144,16.516 -0.063,0.129 0.007,0.323 0.023,0.641 0.349,0.174 0.764,0.381 1.312,0.654 0.612,-0.856 1.147,-1.598 1.676,-2.345 2.624,-3.708 5.196,-7.454 7.894,-11.108 1.193,-1.615 2.633,-3.049 3.983,-4.546 0.196,-0.217 0.478,-0.529 0.904,-0.09 -0.397,0.514 -0.792,1.043 -1.205,1.557 -0.79,0.983 -1.644,1.921 -2.379,2.944 -2.65,3.69 -5.267,7.403 -7.876,11.122 -0.214,0.306 -0.29,0.709 -0.418,1.074 0.425,-0.353 0.889,-0.671 1.256,-1.076 2.933,-3.244 5.826,-6.524 8.77,-9.759 3.925,-4.314 8.264,-8.146 13.23,-11.243 0.55,-0.343 1.086,-0.821 1.428,-1.362 1.167,-1.848 2.274,-3.736 3.341,-5.643 0.449,-0.802 0.791,-1.675 1.086,-2.547 0.211,-0.623 0.387,-1.305 -0.075,-1.962 -1.04,0.021 -1.91,0.573 -2.806,1.004 -0.983,0.473 -1.932,1.026 -2.867,1.59 -0.864,0.521 -1.682,1.115 -2.536,1.653 -0.887,0.559 -1.626,1.383 -2.744,1.549 2.914,-3.03 6.553,-4.978 10.657,-6.941 -0.658,-0.223 -0.96,-0.441 -1.201,-0.387 -0.979,0.221 -2.001,0.398 -2.895,0.824 -2.274,1.083 -4.52,2.233 -6.719,3.462 -6.055,3.381 -10.607,8.217 -13.695,14.419 z m -1.971,-18.088 c -2.567,4.82 -5.1,9.659 -7.535,14.547 -1.008,2.023 -1.765,4.176 -2.553,6.301 -0.347,0.935 -0.559,1.938 -0.701,2.929 -0.38,2.66 -0.697,5.329 -1.017,7.997 -0.055,0.461 -0.008,0.934 -0.008,1.401 0.493,-0.386 0.789,-0.824 0.813,-1.276 0.186,-3.502 1.37,-6.733 2.665,-9.928 1.357,-3.347 2.775,-6.669 4.194,-9.991 0.177,-0.415 0.263,-0.957 0.826,-1.098 0.216,1.126 -0.332,2.099 -0.722,3.067 -0.908,2.252 -1.923,4.461 -2.903,6.684 -1.286,2.914 -2.494,5.854 -3.187,8.98 -0.163,0.735 -0.382,1.453 -0.005,2.394 0.269,-0.868 0.506,-1.567 0.702,-2.277 0.988,-3.573 2.539,-6.913 4.226,-10.194 0.322,-0.627 0.561,-1.392 1.384,-1.616 0.1,0.892 -0.507,1.528 -0.837,2.262 -1.125,2.504 -2.364,4.965 -3.353,7.521 -0.685,1.771 -1.048,3.67 -1.51,5.523 -0.058,0.234 0.158,0.536 0.321,1.032 0.568,-0.681 0.967,-1.158 1.362,-1.632 0.124,0.596 -0.506,1.223 0.036,1.802 0.563,0.019 0.726,-0.368 0.872,-0.768 1.702,-4.67 4.015,-9.06 6.224,-13.494 1.538,-3.087 3.263,-6.068 5.361,-8.821 0.402,-0.527 0.702,-1.139 0.998,-1.737 1.043,-2.105 2.067,-4.219 3.091,-6.333 0.952,-1.964 2.029,-3.881 2.799,-5.914 0.618,-1.631 0.948,-3.389 1.235,-5.119 0.175,-1.054 0.251,-2.301 -0.899,-2.941 -1.078,-0.599 -2.17,-0.134 -3.076,0.504 -1.162,0.818 -2.3,1.7 -3.32,2.687 -2.253,2.181 -4.017,4.755 -5.483,7.508 z m -3.482,-18.936 c -2.682,6.896 -4.927,13.927 -6.208,21.225 -0.812,4.629 -1.454,9.292 -1.037,14.021 0.032,0.363 -0.122,0.867 0.507,0.911 0.108,-0.132 0.241,-0.241 0.308,-0.382 2.536,-5.297 5.044,-10.607 7.61,-15.888 0.695,-1.431 1.381,-2.932 2.392,-4.13 1.922,-2.276 2.234,-4.764 1.616,-7.518 -0.018,-0.081 -0.016,-0.167 -0.03,-0.25 -0.441,-2.597 -1.292,-5.037 -2.814,-7.209 -0.471,-0.672 -0.919,-1.397 -1.867,-1.682 -0.179,0.337 -0.362,0.607 -0.477,0.902 z m -10.344,9.304 c 1.136,3.17 1.757,6.465 2.034,9.824 0.062,0.751 0.183,1.498 0.272,2.248 0.091,0.763 0.176,1.527 0.263,2.29 1.619,-8.633 4.088,-16.953 7.275,-25.085 -0.94,-0.8 -1.821,-0.583 -2.693,-0.266 -1.539,0.559 -2.746,1.592 -3.837,2.773 -1.266,1.371 -2.111,3.009 -2.982,4.64 -0.627,1.176 -0.802,2.264 -0.332,3.576 z m -9.291,-6.148 c -0.565,2.364 -1.034,4.764 -1.344,7.174 -0.767,5.958 -0.31,11.926 0.096,17.884 0.114,1.673 0.405,3.337 0.666,4.997 0.97,6.159 2.825,12.104 4.418,18.111 0.082,0.311 0.373,0.566 0.567,0.847 -0.61,-4.211 -1.587,-8.275 -2.319,-12.383 -1.306,-7.337 -1.435,-10.428 -0.646,-12.715 0.11,1.114 0.187,1.838 0.252,2.564 0.218,2.428 0.356,4.867 0.663,7.284 0.614,4.838 1.672,9.595 2.801,14.335 0.065,0.274 0.027,0.698 0.538,0.51 0.035,-0.084 0.098,-0.16 0.095,-0.234 -0.422,-10.503 -0.787,-21.01 -1.302,-31.508 -0.235,-4.782 -0.769,-9.549 -1.154,-14.324 -0.009,-0.111 0.146,-0.235 0.34,-0.527 0.179,0.483 0.388,0.841 0.438,1.22 0.345,2.581 0.799,5.159 0.951,7.754 0.411,6.967 0.724,13.94 1.003,20.914 0.141,3.529 0.123,7.063 0.182,10.595 0.02,1.177 0.031,2.355 0.093,3.531 0.04,0.754 0.148,1.506 0.258,2.254 0.063,0.429 0.23,0.823 0.769,0.814 0.498,-0.008 0.776,-0.306 0.805,-0.778 0.056,-0.922 0.131,-1.85 0.092,-2.77 -0.101,-2.436 -0.25,-4.869 -0.397,-7.303 -0.065,-1.068 -0.084,-1.066 0.404,-2.436 0.155,0.678 0.295,1.145 0.362,1.623 0.07,0.498 0.077,1.006 0.1,1.51 0.024,0.504 0.03,1.009 0.052,1.513 0.022,0.504 0.049,1.008 0.081,1.512 0.036,0.588 0.083,1.174 0.119,1.762 0.031,0.503 0.069,1.007 0.074,1.511 0.005,0.504 -0.059,1.01 -0.034,1.512 0.02,0.401 -0.386,0.907 0.322,1.351 0.148,-0.518 0.286,-0.901 0.367,-1.296 1.001,-4.884 1.392,-9.827 1.197,-14.801 -0.184,-4.705 -0.437,-9.408 -0.775,-14.104 -0.334,-4.632 -1.183,-9.175 -2.967,-13.493 -0.544,-1.317 -1.154,-2.618 -1.866,-3.851 -0.409,-0.707 -0.995,-1.382 -1.654,-1.862 -1.554,-1.135 -3.197,-0.577 -3.647,1.303 z m -3.802,19.836 c 0.863,8.111 2.397,16.107 4.528,23.983 0.46,1.701 1.009,3.378 1.544,5.058 0.124,0.388 0.325,0.785 1.04,0.673 0,-0.283 0.063,-0.602 -0.011,-0.884 -0.298,-1.135 -0.629,-2.262 -0.964,-3.387 -2.137,-7.171 -4.004,-14.4 -4.531,-21.9 -0.407,-5.785 -0.661,-11.575 0.177,-17.348 0.24,-1.65 0.521,-3.294 0.784,-4.941 -1.397,1.382 -1.803,3.164 -2.18,4.947 -0.967,4.573 -0.877,9.196 -0.387,13.799 z m -0.476,9.281 c -1.605,-2.358 -3.273,-4.672 -4.955,-6.976 -0.313,-0.429 -0.574,-1.011 -1.247,-1.028 0.139,0.547 0.224,1.116 0.439,1.63 1.067,2.555 2.168,5.096 3.262,7.639 2.619,6.089 5.325,12.144 7.082,18.562 0.106,0.386 0.338,0.737 0.522,1.126 0.715,-0.58 0.737,-0.588 0.527,-1.163 -2.109,-5.77 -3.52,-11.726 -4.802,-17.72 -0.154,-0.719 -0.419,-1.468 -0.828,-2.07 z M 92.047,350.893 c 3.999,4.425 7.968,8.882 11.505,13.698 0.186,0.253 0.452,0.447 0.985,0.961 -0.429,-4.199 -0.808,-7.951 -1.204,-11.701 -0.044,-0.412 -0.11,-0.852 -0.293,-1.215 -1.741,-3.449 -3.448,-6.922 -5.817,-10.002 -0.455,-0.592 -1.013,-1.132 -1.608,-1.582 -0.989,-0.747 -1.823,-0.629 -2.635,0.349 -0.425,0.511 -0.766,1.102 -1.083,1.691 -0.739,1.369 -0.777,2.896 -0.97,4.397 -0.173,1.348 0.177,2.36 1.12,3.404 z m -6.212,0.331 c 0.213,1.935 0.72,3.808 1.492,5.587 1.505,3.47 2.99,6.953 4.645,10.351 3.904,8.011 7.901,15.976 11.869,23.954 0.155,0.311 0.404,0.575 0.609,0.861 -0.772,-3.059 -2.232,-5.777 -3.511,-8.572 -1.284,-2.806 -2.726,-5.546 -3.259,-8.679 0.584,1.202 1.192,2.392 1.747,3.607 1.815,3.976 3.601,7.966 5.429,11.936 0.223,0.484 0.255,1.206 1.037,1.259 0.681,-0.315 0.444,-0.867 0.264,-1.287 -0.892,-2.086 -1.785,-4.175 -2.769,-6.218 -3.299,-6.853 -5.483,-14.087 -7.418,-21.41 -0.06,-0.228 -0.061,-0.471 -0.09,-0.708 1.613,3.016 2.475,6.292 3.56,9.49 1.134,3.341 2.33,6.665 3.641,9.939 1.277,3.189 2.736,6.306 4.102,9.425 1.627,-0.083 1.854,-0.301 1.569,-1.489 -0.117,-0.489 -0.27,-0.973 -0.445,-1.445 -1.257,-3.388 -2.446,-6.803 -3.804,-10.15 -2.591,-6.387 -5.279,-12.734 -7.933,-19.095 -0.161,-0.385 -0.304,-0.812 -0.574,-1.113 -2.243,-2.504 -4.487,-5.008 -6.791,-7.456 -0.682,-0.724 -1.558,-1.265 -2.637,-1.324 -0.946,0.681 -0.833,1.631 -0.733,2.537 z m -6.83,21.907 c 5.365,6.263 11.021,12.267 16.952,18.002 1.329,1.285 2.74,2.486 4.14,3.695 0.326,0.282 0.754,0.403 0.953,-0.19 -0.362,-1.093 -1.836,-1.318 -2.13,-2.876 0.957,0.809 1.643,1.414 2.359,1.981 0.245,0.194 0.558,0.418 0.98,-0.049 -0.16,-0.531 -0.341,-1.133 -0.522,-1.736 0.652,-0.002 0.588,1.195 1.586,0.883 -0.301,-0.65 -0.548,-1.251 -0.849,-1.824 -4.809,-9.159 -9.637,-18.309 -13.981,-27.701 -1.04,-2.247 -2.326,-4.177 -4.157,-5.882 -2.66,-2.478 -5.434,-4.776 -8.496,-6.719 -1.06,-0.672 -2.208,-1.213 -3.342,-1.76 -0.931,-0.449 -1.942,-0.586 -2.955,-0.358 -0.359,0.081 -0.671,0.37 -1.176,0.664 1.015,1.157 2.137,1.896 3.114,2.786 2.113,1.925 4.233,3.843 6.325,5.791 0.253,0.235 0.717,0.516 0.294,1.141 -1.066,-0.979 -2.093,-1.95 -3.151,-2.884 -1.135,-1.002 -2.278,-1.998 -3.461,-2.943 -1.093,-0.873 -2.115,-1.86 -3.57,-2.624 -0.101,0.748 -0.279,1.317 -0.234,1.868 0.136,1.682 0.512,3.315 1.122,4.9 1.002,2.604 2.23,5.102 3.823,7.377 2.027,2.892 4.083,5.782 6.376,8.458 z m -6.057,14.792 c 7.152,4.633 14.854,8.193 22.565,11.741 0.227,0.105 0.47,0.224 0.711,0.238 0.262,0.015 0.532,-0.084 1.029,-0.177 -0.794,-0.971 -1.713,-1.205 -2.521,-1.583 -4.415,-2.064 -8.845,-4.095 -13.263,-6.152 -3.449,-1.605 -6.597,-3.689 -9.534,-6.095 -0.252,-0.206 -0.766,-0.402 -0.269,-1.011 4.103,2.647 8.153,5.355 12.599,7.394 4.493,2.06 8.937,4.228 13.263,6.282 0.848,-0.34 1.04,-0.862 1.056,-1.49 -0.719,-0.415 -1.477,-0.775 -2.149,-1.255 -3.337,-2.381 -6.655,-4.79 -9.972,-7.2 -0.36,-0.261 -0.67,-0.59 -0.892,-1.027 4.868,2.439 9.113,5.751 13.246,9.224 v 0 c 0.327,-0.205 0.654,-0.41 1.146,-0.719 -0.51,-0.492 -0.825,-0.865 -1.205,-1.151 -2.829,-2.129 -5.43,-4.516 -7.903,-7.039 -2.942,-3.001 -5.825,-6.06 -8.744,-9.083 -0.521,-0.54 -1.024,-1.155 -1.659,-1.519 -5.119,-2.935 -10.449,-5.405 -16.158,-6.969 -1.454,-0.398 -2.953,-0.657 -4.446,-0.882 -0.734,-0.11 -1.507,-0.044 -2.25,0.042 -0.345,0.04 -0.875,0.065 -0.837,0.854 0.999,0.591 2.075,1.222 3.147,1.861 2.238,1.333 2.237,1.335 2.952,2.484 -1.076,-0.611 -2,-1.176 -2.962,-1.668 -0.934,-0.478 -1.78,-1.204 -2.858,-1.271 -0.399,0.65 -0.06,1.071 0.168,1.496 0.964,1.796 2.298,3.309 3.687,4.776 3.603,3.805 7.656,7.05 12.053,9.899 z m 8.982,7.035 c -0.121,-0.017 -0.245,-0.008 -0.369,-0.005 0.057,0.114 0.104,0.248 0.194,0.29 0.075,0.035 0.228,-0.094 0.347,-0.15 -0.057,-0.047 -0.109,-0.126 -0.172,-0.135 z m -21.321,-0.879 c 0.346,0.197 0.8,0.288 1.204,0.287 1.908,-0.005 3.816,-0.059 5.871,-0.098 -0.287,-0.698 -0.807,-0.781 -1.233,-0.995 -2.254,-1.131 -4.509,-2.262 -6.75,-3.419 -0.304,-0.157 -0.77,-0.279 -0.648,-0.967 0.967,0.44 1.878,0.832 2.77,1.263 1.817,0.879 3.654,1.725 5.43,2.683 3.622,1.955 7.581,2.3 11.567,2.568 -1.113,-0.864 -2.53,-0.975 -3.778,-1.506 -0.514,-0.219 -1.204,-0.156 -1.493,-1.06 1.936,0.562 3.748,1.113 5.575,1.607 0.749,0.203 1.527,0.302 2.294,0.439 -0.269,-0.253 -0.518,-0.541 -0.83,-0.721 -2.912,-1.684 -5.835,-3.351 -8.763,-5.007 -0.508,-0.287 -1.035,-0.572 -1.589,-0.738 -2.739,-0.819 -5.474,-1.662 -8.241,-2.374 -2.606,-0.67 -5.242,-1.243 -7.95,-1.346 -1.084,-0.042 -2.174,-0.121 -3.326,0.455 0.068,0.481 0.018,1.013 0.228,1.408 0.311,0.583 0.767,1.105 1.229,1.589 2.418,2.53 5.433,4.226 8.433,5.932 z m 18.446,1.447 c 0.02,0.029 0.036,0.062 0.062,0.083 0.042,0.034 0.12,0.023 0.181,0.033 -0.08,-0.038 -0.162,-0.077 -0.243,-0.116 z M 59.76,407.358 c 1.425,0.695 2.878,0.736 4.419,0.488 4.263,-0.685 8.55,-0.579 12.824,-0.121 3.007,0.322 5.996,0.816 9.002,1.156 2.42,0.274 4.853,0.442 7.282,0.626 0.258,0.02 0.695,0.183 0.801,-0.489 -0.557,-0.253 -1.123,-0.582 -1.732,-0.774 -6.253,-1.963 -12.498,-3.958 -18.94,-5.233 -4.368,-0.865 -8.739,-1.719 -13.105,-2.592 -0.345,-0.069 -0.86,-0.069 -0.644,-0.863 1.987,0.299 3.973,0.564 5.946,0.904 1.987,0.342 3.967,0.73 5.94,1.148 1.89,0.4 3.773,0.842 5.648,1.307 1.957,0.486 3.909,0.991 5.847,1.544 1.939,0.553 3.847,1.213 5.787,1.759 1.887,0.531 3.661,1.493 5.694,1.685 -0.016,-0.257 0.01,-0.393 -0.031,-0.418 -5.848,-3.609 -12.61,-4.84 -18.901,-7.352 2.246,0.133 4.37,0.851 6.499,1.485 2.173,0.647 4.295,1.461 6.456,2.147 2.129,0.676 4.104,1.774 6.197,2.401 0.802,-1.078 0.057,-1.598 -0.478,-2.177 1.278,-0.164 1.295,-0.208 1.678,-2.186 -0.673,-0.257 -1.35,-0.583 -2.063,-0.777 -4.215,-1.144 -8.411,-2.372 -12.664,-3.354 -6.083,-1.404 -12.251,-2.138 -18.516,-1.678 -3.275,0.241 -6.533,0.59 -9.688,1.546 -0.876,0.265 -1.733,0.644 -2.539,1.081 -0.739,0.401 -1.022,1.193 -0.664,1.95 0.352,0.744 0.796,1.506 1.386,2.063 0.785,0.741 1.692,1.402 2.648,1.901 1.936,1.009 3.948,1.866 5.911,2.823 z m 8.337,14.268 c 8.479,-3.635 17.184,-6.351 26.513,-6.555 0.292,-0.007 0.691,0.037 0.792,-0.391 -0.033,-0.789 -0.579,-1.009 -1.194,-1.001 -2.183,0.03 -4.366,0.085 -6.547,0.179 -1.426,0.061 -2.847,0.225 -4.273,0.3 -0.316,0.017 -0.77,0.173 -1.03,-0.508 2.183,-0.192 4.262,-0.379 6.342,-0.557 2.069,-0.178 4.163,0.18 6.397,-0.224 -0.225,-0.632 -0.406,-1.139 -0.556,-1.563 -2.108,-0.138 -4.045,-0.187 -5.962,-0.407 -3.757,-0.43 -7.513,-0.894 -11.252,-1.453 -8.72,-1.303 -17.061,0.472 -25.316,3.004 -0.792,0.243 -1.624,0.498 -2.064,1.424 0.784,0.82 1.891,0.985 2.891,1.332 1.109,0.384 2.243,0.707 3.382,0.996 1.058,0.269 2.129,0.495 3.206,0.671 1.077,0.176 2.166,0.292 3.253,0.388 1.171,0.103 2.347,0.152 3.521,0.221 1.048,0.062 2.12,-0.122 3.15,0.343 -1.463,0.377 -2.951,0.313 -4.432,0.338 -4.928,0.083 -9.657,-0.969 -14.415,-2.437 0.702,1.47 1.958,2.275 3.275,3.001 3.049,1.683 6.357,2.634 9.732,3.373 2.339,0.514 2.348,0.486 4.587,-0.474 z m 7.027,8.934 c 0.774,-0.636 1.692,-1.095 2.531,-1.655 0.301,-0.201 0.805,-0.285 0.608,-0.953 -2.227,0.373 -4.456,0.732 -6.68,1.122 -4.52,0.793 -4.887,0.821 -6.509,0.35 4.114,-0.749 8.168,-1.42 12.19,-2.246 2.215,-0.455 4.492,-0.91 6.537,-1.822 4.226,-1.883 8.467,-3.709 12.807,-5.31 0.373,-0.138 0.701,-0.398 1.263,-0.724 -0.429,-0.27 -0.692,-0.576 -0.922,-0.553 -0.575,0.057 -1.151,0.22 -1.699,0.419 -4.027,1.462 -8.042,2.957 -12.075,4.404 -0.509,0.183 -0.971,0.735 -1.812,0.267 0.836,-0.427 1.531,-0.857 2.279,-1.153 3.594,-1.421 7.202,-2.805 10.804,-4.206 0.622,-0.242 1.243,-0.49 1.849,-0.77 0.113,-0.052 0.232,-0.301 0.198,-0.414 -0.065,-0.215 -0.196,-0.493 -0.375,-0.571 -0.293,-0.127 -0.647,-0.155 -0.975,-0.153 -2.95,0.015 -5.884,0.262 -8.777,0.834 -7.053,1.396 -13.75,3.859 -20.208,6.972 -2.576,1.242 -5.016,2.751 -7.228,4.585 -0.824,0.683 -1.751,1.322 -2.033,2.483 0.604,1.04 1.594,1.179 2.597,1.343 3.453,0.565 6.879,0.05 10.312,-0.219 1.97,-0.153 3.758,-0.747 5.318,-2.03 z m -12.687,18.544 c 2.456,-1.767 4.958,-3.477 7.329,-5.353 3.691,-2.921 7.277,-5.974 10.928,-8.946 5.354,-4.357 10.889,-8.454 16.973,-11.76 0.641,-0.348 1.237,-0.777 2.007,-1.264 -0.372,-0.217 -0.562,-0.328 -0.749,-0.437 -0.013,0 -0.028,-10e-4 -0.041,-10e-4 0.009,-0.002 0.018,-0.004 0.027,-0.007 0,0 0.047,0.012 0.04,0.009 -0.002,0 -0.005,0 -0.007,0 l 0.014,0.003 c -0.234,-0.322 -0.467,-0.643 -0.742,-1.022 -4.205,1.715 -8.312,3.434 -12.256,5.489 -6.654,3.466 -13.01,7.407 -18.472,12.618 -1.575,1.503 -3.068,3.122 -4.399,4.842 -0.857,1.107 -1.425,2.462 -1.981,3.767 -0.348,0.816 -0.525,1.745 -0.013,2.807 0.503,-0.276 0.954,-0.466 1.342,-0.745 z m 17.291,-6.111 c 1.671,-1.301 3.129,-2.742 4.33,-4.509 2.615,-3.846 5.722,-7.262 9.436,-10.094 2.072,-1.58 4.154,-3.148 6.227,-4.727 0.25,-0.19 0.474,-0.414 0.725,-0.637 -0.143,-0.099 -0.235,-0.203 -0.278,-0.186 -0.46,0.185 -0.932,0.352 -1.362,0.593 -5.743,3.207 -11.111,6.975 -16.221,11.097 -6.411,5.173 -12.59,10.641 -19.538,15.121 -0.213,0.137 -0.299,0.47 -0.525,0.847 1.503,0.263 2.709,-0.059 3.904,-0.454 4.83,-1.603 9.276,-3.918 13.302,-7.051 z m 13.865,6.813 c 0.298,-1.215 0.818,-2.383 1.311,-3.541 1.152,-2.706 2.364,-5.387 3.515,-8.093 0.311,-0.732 0.504,-1.514 0.744,-2.276 -0.684,0.231 -0.886,0.901 -1.184,1.436 -1.801,3.228 -3.556,6.483 -5.334,9.724 -0.304,0.554 -0.645,1.086 -0.969,1.629 -0.31,-0.776 -0.003,-1.353 0.278,-1.929 3.141,-6.43 6.501,-12.725 11.131,-18.248 0.811,-0.967 1.06,-1.541 1.434,-3.042 -1.76,1.223 -2.733,2.89 -3.973,4.284 -1.227,1.38 -2.353,2.854 -3.482,4.318 -1.18,1.531 -2.339,3.08 -3.455,4.659 -1.067,1.51 -2.108,3.041 -3.084,4.61 -1.02,1.641 -1.966,3.329 -2.91,5.016 -0.903,1.613 -1.724,3.273 -2.65,4.873 -0.94,1.624 -1.428,3.506 -2.828,5.172 -0.299,-1.259 0.248,-2.066 0.604,-2.872 2.727,-6.167 5.904,-12.081 9.977,-17.482 3.19,-4.231 6.489,-8.373 10.064,-12.289 0.191,-0.209 0.28,-0.512 0.411,-0.758 -0.201,-0.13 -0.305,-0.226 -0.33,-0.209 -2.856,1.976 -5.173,4.607 -8.047,6.593 0.421,-0.707 0.942,-1.318 1.505,-1.888 0.649,-0.658 1.334,-1.282 2.005,-1.918 0.61,-0.578 1.202,-1.178 1.84,-1.725 1.286,-1.105 1.287,-1.103 1.574,-1.976 -0.719,-0.298 -1.081,0.297 -1.496,0.646 -2.314,1.951 -4.632,3.899 -6.894,5.909 -5.073,4.507 -9.241,9.757 -12.617,15.634 -1.553,2.703 -2.776,5.56 -3.761,8.52 -0.807,2.425 -1.135,4.912 -0.965,7.454 0.056,0.829 0.192,1.679 0.458,2.462 0.703,2.07 2.209,2.682 4.169,1.62 1.02,-0.553 1.965,-1.301 2.815,-2.098 2.891,-2.713 5.429,-5.735 7.64,-9.03 1.082,-1.613 2.032,-3.262 2.504,-5.185 z m 5.703,-14.399 c -0.015,0.122 -0.031,0.244 -0.046,0.366 0.099,-0.065 0.199,-0.13 0.298,-0.195 -0.085,-0.056 -0.169,-0.113 -0.252,-0.171 z m 10.853,-4.314 c 0.043,-0.473 0.006,-0.953 0.006,-1.431 -0.515,0.996 -0.825,2.028 -1.094,3.071 -0.273,1.058 -0.523,2.123 -0.749,3.192 -0.226,1.069 -0.434,2.143 -0.604,3.221 -0.17,1.078 -0.254,2.17 -0.428,3.248 -0.156,0.965 0.19,2.016 -0.593,3.263 -0.137,-3.396 -0.007,-6.405 0.631,-9.373 0.63,-2.937 1.335,-5.858 2.037,-8.916 -0.409,0.03 -0.741,-0.04 -0.83,0.076 -0.452,0.593 -0.842,1.234 -1.254,1.858 0,-0.003 0.001,-0.005 0.001,-0.008 -0.161,0.314 -0.322,0.628 -0.483,0.942 0.005,-0.003 0.006,-0.008 0.01,-0.011 -0.174,0.512 -0.348,1.024 -0.522,1.536 0.009,-0.006 0.01,-0.013 0.019,-0.019 -0.174,0.511 -0.348,1.021 -0.522,1.532 0.008,-0.005 0.009,-0.012 0.017,-0.017 -0.082,0.551 -10e-4,1.158 -0.517,1.56 -0.51,2.721 -0.943,5.46 -2.022,8.038 0.003,-0.003 0.004,-0.007 0.007,-0.01 -0.032,0.888 0.182,1.826 -0.51,2.578 -0.177,1.473 -0.325,2.95 -0.54,4.418 -0.812,5.545 -1.587,11.096 -2.501,16.624 -0.367,2.217 -1.024,4.391 -1.625,6.563 -0.169,0.609 -0.608,1.143 -0.923,1.712 0.536,-2.182 1.171,-4.345 1.585,-6.549 0.57,-3.029 0.96,-6.092 1.453,-9.137 0.706,-4.359 1.431,-8.715 2.168,-13.07 0.035,-0.204 0.222,-0.382 0.356,-0.569 0.022,-0.874 -0.14,-1.786 0.509,-2.531 0.306,-2.775 0.852,-5.49 2.025,-8.046 -0.005,0.004 -0.007,0.009 -0.012,0.013 0.079,-0.55 -0.061,-1.176 0.51,-1.558 0.052,-0.544 -0.05,-1.141 0.504,-1.514 0.04,-0.546 0.015,-1.115 0.501,-1.51 0.061,-0.402 0.046,-0.842 0.522,-1.03 0.133,-0.761 0.266,-1.522 0.399,-2.283 -0.594,0.228 -0.956,0.551 -1.142,0.955 -1.114,2.425 -2.174,4.874 -3.284,7.301 -0.253,0.553 -0.336,1.247 -0.998,1.536 0.11,-0.542 0.157,-1.109 0.367,-1.609 0.973,-2.323 1.999,-4.623 3.003,-6.933 0.23,-0.529 0.451,-1.063 0.765,-1.803 -0.457,-0.009 -0.895,-0.13 -0.991,0 -0.441,0.602 -0.861,1.241 -1.156,1.924 -2.867,6.629 -5.74,13.256 -8.531,19.918 -0.612,1.46 -1.037,3.031 -1.32,4.592 -1.008,5.576 -1.008,11.207 -0.584,16.835 0.133,1.763 0.652,3.473 1.712,4.948 0.226,0.314 0.557,0.553 1.027,1.01 0.278,-0.401 0.467,-0.675 0.657,-0.948 0.111,0.296 0.221,0.591 0.367,0.979 1.099,-0.382 1.888,-1.022 2.488,-1.82 1.108,-1.475 2.234,-2.957 3.146,-4.554 1.634,-2.861 2.713,-5.966 3.538,-9.152 1.186,-4.58 1.561,-9.281 2.013,-13.968 0.485,-5.023 0.937,-10.049 1.392,-15.074 z m 7.439,45.043 c -0.747,-5.676 -1.171,-11.373 -1.237,-17.101 -0.032,-2.773 -0.136,-5.551 -0.358,-8.314 -0.37,-4.609 -0.889,-9.207 -1.29,-13.814 -0.226,-2.596 -0.338,-5.202 -0.515,-7.803 -0.026,-0.377 0.08,-0.872 -0.582,-0.94 -0.07,0.221 -0.192,0.439 -0.201,0.663 -0.186,4.435 -0.024,8.868 0.136,13.762 -1.001,-2.303 -0.625,-4.326 -0.811,-6.27 -0.196,-2.049 -0.292,-4.107 -0.432,-6.161 -0.875,3.388 -1.046,6.824 -1.404,10.237 -0.464,4.432 -0.926,8.864 -1.349,13.3 -0.095,0.996 -0.071,2.011 -0.014,3.013 0.058,1.006 0.215,2.006 0.347,3.007 0.497,3.758 1.172,7.477 2.524,11.039 0.629,1.658 1.358,3.266 2.512,4.636 0.642,0.762 1.306,1.523 2.677,1.728 0.001,-0.496 0.028,-0.743 -0.003,-0.982 z m 5.774,-23.089 c -0.185,-3.276 -0.639,-6.493 -1.523,-9.678 -1.281,-4.613 -2.325,-9.292 -3.466,-13.944 -0.08,-0.326 -0.083,-0.676 -0.197,-0.987 -0.133,-0.365 -0.191,-0.91 -0.734,-0.85 -0.579,0.064 -0.517,0.591 -0.453,0.987 0.216,1.327 0.509,2.642 0.705,3.971 0.276,1.872 0.496,3.752 0.735,5.632 -0.176,-0.234 -0.409,-0.457 -0.462,-0.716 -0.591,-2.879 -1.144,-5.767 -1.712,-8.651 -0.048,-0.245 -0.101,-0.501 -0.216,-0.717 -0.063,-0.118 -0.261,-0.225 -0.399,-0.226 -0.134,-10e-4 -0.31,0.11 -0.393,0.226 -0.089,0.123 -0.137,0.313 -0.126,0.467 0.326,4.444 0.572,8.897 1.017,13.329 0.588,5.859 1.227,11.708 1.252,17.606 0.023,5.304 0.432,10.586 1.015,15.855 0.043,0.389 -0.005,0.867 0.617,0.943 0.79,-0.4 1.173,-1.177 1.445,-1.954 0.693,-1.978 1.413,-3.96 1.909,-5.992 1.228,-5.031 1.276,-10.16 0.986,-15.301 z m 19.715,16.486 c 0.054,-2.637 -0.531,-5.174 -1.225,-7.69 -2.738,-9.921 -7.676,-18.79 -13.145,-27.402 -0.15,-0.237 -0.44,-0.385 -0.682,-0.564 0.086,0.53 0.107,1.086 0.303,1.572 0.648,1.609 1.387,3.181 2.056,4.782 0.283,0.678 0.48,1.391 0.716,2.088 l -0.162,0.137 c -0.319,-0.479 -0.693,-0.931 -0.948,-1.443 -1.867,-3.756 -3.523,-7.604 -4.819,-11.594 -0.394,-1.214 -0.928,-2.328 -1.687,-3.34 -0.082,-0.109 -0.283,-0.129 -0.561,-0.245 -0.236,0.217 -0.516,0.475 -0.748,0.689 0.604,1.9 1.204,3.645 1.713,5.415 1.249,4.346 2.359,8.734 3.979,12.967 0.105,0.274 0.1,0.59 0.129,0.895 -0.284,-0.354 -0.642,-0.679 -0.804,-1.082 -0.626,-1.558 -1.232,-3.128 -1.749,-4.725 -1.241,-3.837 -2.425,-7.692 -3.64,-11.537 -0.173,-0.548 -0.391,-1.082 -0.576,-1.588 -1.01,-0.159 -1.786,-0.04 -2.374,0.757 0.066,0.414 0.092,0.838 0.205,1.238 1.793,6.39 3.563,12.787 5.412,19.161 1.218,4.2 2.719,8.303 4.571,12.273 2.053,4.402 4.937,8.197 8.433,11.539 0.663,0.634 1.423,1.179 2.187,1.691 0.301,0.202 0.737,0.204 1.459,0.384 -1.245,-2.837 -2.402,-5.322 -3.43,-7.859 -1.061,-2.619 -2.131,-5.249 -2.462,-8.115 0.404,0.335 0.716,0.71 0.899,1.141 0.593,1.391 1.113,2.813 1.707,4.204 1.22,2.859 2.466,5.707 3.709,8.555 0.162,0.372 0.288,0.812 0.883,0.804 0.605,-0.94 0.629,-2.024 0.651,-3.108 z m -15.876,-40.4 c 0.027,-0.046 0.089,-0.112 0.076,-0.135 -0.045,-0.079 -0.101,-0.151 -0.155,-0.224 0.026,0.119 0.053,0.239 0.079,0.359 z m 0.746,4.619 c -0.021,-0.115 -0.042,-0.231 -0.064,-0.346 -0.076,0.063 -0.152,0.126 -0.229,0.189 0.098,0.052 0.195,0.104 0.293,0.157 z m 0.398,-2.501 c -0.018,-0.142 -0.037,-0.283 -0.055,-0.425 -0.042,0.048 -0.128,0.118 -0.117,0.141 0.048,0.099 0.111,0.191 0.172,0.284 z m 1.128,1.433 c -0.056,-0.646 -0.295,-1.142 -1.006,-1.254 0.335,0.418 0.67,0.836 1.006,1.254 z m 1.016,1.586 c 0.014,-0.698 -0.306,-1.177 -0.947,-1.445 0.063,0.647 0.329,1.16 0.947,1.445 z m 19.877,27.961 c -0.724,-3.589 -2.072,-6.961 -4.251,-9.879 -3.124,-4.184 -6.094,-8.46 -8.916,-12.851 -2.09,-3.253 -4.328,-6.414 -6.574,-9.563 -0.924,-1.296 -2.03,-2.465 -3.087,-3.661 -0.225,-0.254 -0.44,-0.734 -1.091,-0.407 0.461,0.741 0.878,1.462 1.343,2.149 2.358,3.483 4.769,6.931 7.081,10.443 1.384,2.103 2.629,4.298 3.917,6.463 0.146,0.245 0.158,0.57 0.298,1.117 -0.36,-0.319 -0.521,-0.401 -0.591,-0.532 -1.905,-3.581 -4.433,-6.741 -6.774,-10.027 -0.318,-0.446 -0.527,-1.041 -1.184,-1.141 0.034,0.973 0.719,1.645 1.163,2.417 3.818,6.639 7.612,13.287 10.022,20.611 0.182,0.553 0.412,1.124 0.756,1.585 1.469,1.967 3.201,3.679 5.207,5.101 0.631,0.448 1.378,0.86 2.108,0.44 0.871,-0.499 0.742,-1.43 0.573,-2.265 z m 0.353,-26.762 c -1.955,-2.086 -3.996,-4.091 -5.96,-6.17 -0.879,-0.93 -1.904,-1.627 -2.975,-2.306 -3.194,-2.025 -6.351,-4.11 -9.526,-6.166 -0.337,-0.218 -0.694,-0.406 -1.162,-0.678 -0.255,0.428 -0.45,0.755 -0.7,1.174 0.811,0.545 1.488,1.027 2.19,1.467 8.402,5.268 15.21,12.165 20.741,20.352 0.844,1.25 1.537,2.603 2.269,3.925 0.144,0.26 0.146,0.598 0.213,0.901 -3.3,-5.348 -7.24,-10.115 -11.594,-14.551 -4.372,-4.454 -9.292,-8.19 -14.781,-11.327 -0.398,0.498 -0.687,0.86 -0.954,1.193 2.866,3.4 5.696,6.626 8.372,9.974 2.045,2.559 3.9,5.269 5.824,7.924 0.173,0.239 0.491,0.519 0.066,0.985 -1.695,-2.186 -3.338,-4.385 -5.067,-6.513 -1.798,-2.212 -3.681,-4.357 -5.527,-6.531 -0.143,0.093 -0.287,0.185 -0.43,0.278 0.382,0.52 0.773,1.035 1.144,1.563 1.838,2.614 3.768,5.169 5.485,7.861 3.897,6.112 8.247,11.883 12.833,17.483 0.904,1.103 1.856,2.189 2.921,3.13 0.801,0.708 1.799,1.209 2.752,1.723 0.31,0.167 0.755,0.083 1.189,0.118 0.104,-1.071 -0.313,-1.81 -0.659,-2.558 -0.317,-0.686 -0.717,-1.335 -1.025,-2.024 -0.325,-0.727 -0.886,-1.389 -0.794,-2.574 1.858,2.024 2.601,4.333 3.523,6.776 0.34,-0.407 0.603,-0.616 0.727,-0.889 0.507,-1.115 0.452,-2.303 0.303,-3.475 -1.015,-7.965 -3.84,-15.132 -9.398,-21.065 z m 10.397,0.735 c -0.41,-0.272 -0.916,-0.405 -1.385,-0.585 -1.722,-0.662 -3.444,-1.326 -5.175,-1.965 -0.329,-0.122 -0.699,-0.134 -1.545,-0.284 2.155,2.11 4.375,3.336 6.337,5.017 -0.717,0.438 -1.01,-0.147 -1.391,-0.328 -0.449,-0.214 -0.842,-0.547 -1.258,-0.83 -0.347,-0.236 -0.693,-0.473 -1.037,-0.713 -0.413,-0.288 -0.826,-0.576 -1.234,-0.872 -0.408,-0.296 -0.792,-0.626 -1.216,-0.894 -0.376,-0.237 -0.656,-0.783 -1.249,-0.487 0.019,0.103 0.008,0.202 0.052,0.258 1.927,2.431 3.902,4.824 5.374,7.583 0.259,0.486 0.758,0.903 1.24,1.201 2.292,1.416 4.685,2.64 7.332,3.245 0.889,0.203 1.82,0.3 2.733,0.301 1.085,0.002 1.491,-0.699 1.073,-1.693 -0.162,-0.384 -0.365,-0.757 -0.591,-1.108 -2.086,-3.231 -4.883,-5.738 -8.06,-7.846 z m -6.246,-16.227 c -1.702,-0.724 -3.411,-1.364 -5.311,-1.449 -1.249,-0.056 -2.486,-0.392 -3.725,-0.626 -3.227,-0.608 -6.37,-1.516 -9.477,-2.574 -0.751,-0.256 -1.494,-0.786 -2.701,-0.446 0.654,0.356 1.04,0.622 1.466,0.788 4.224,1.654 8.456,3.287 12.68,4.939 0.652,0.255 1.416,0.35 1.805,1.053 -0.773,-0.19 -1.561,-0.334 -2.31,-0.592 -4.094,-1.41 -8.174,-2.861 -12.27,-4.266 -0.421,-0.145 -0.871,-0.502 -1.314,-0.21 -0.131,0.267 -0.234,0.478 -0.336,0.686 -0.287,-0.003 -0.553,0.141 -0.337,0.402 0.309,0.373 0.741,0.665 1.165,0.918 2.307,1.38 4.631,2.732 6.94,4.11 0.286,0.171 0.726,0.309 0.542,1.028 -1.641,-0.9 -3.182,-1.726 -4.705,-2.585 -1.522,-0.858 -3.027,-1.748 -4.625,-2.673 -0.129,0.399 -0.326,0.734 -0.249,0.819 0.332,0.364 0.712,0.707 1.132,0.966 6.586,4.057 13.263,7.953 20.281,11.227 3.585,1.673 7.273,3.074 11.116,4.046 2.462,0.622 4.953,0.972 7.491,0.737 0.825,-0.076 1.662,-0.266 2.44,-0.551 0.889,-0.327 1.183,-1.109 0.963,-2.065 -0.237,-1.029 -0.829,-1.859 -1.606,-2.508 -1.417,-1.182 -2.838,-2.379 -4.371,-3.399 -4.632,-3.079 -9.569,-5.6 -14.684,-7.775 z m 28.106,-10.655 c -0.84,-0.531 -1.787,-1.008 -2.748,-1.207 -2.051,-0.424 -4.133,-0.793 -6.219,-0.93 -5.201,-0.342 -10.412,-0.521 -15.616,-0.804 -5.048,-0.275 -10.089,-0.083 -15.122,0.254 -2.175,0.146 -4.336,0.528 -6.499,0.827 -0.324,0.045 -0.628,0.226 -1.305,0.48 3.197,0.527 6.013,-0.229 8.783,0.335 -2.457,0.643 -4.942,0.789 -7.457,0.577 -0.496,-0.042 -1.014,-0.081 -1.491,0.021 -0.219,0.047 -0.362,0.442 -0.637,0.809 2.434,0.907 4.787,0.885 7.098,1.055 2.262,0.166 4.533,0.286 6.8,0.276 2.302,-0.01 4.603,-0.202 6.904,-0.314 -1.467,0.452 -2.951,0.772 -4.445,0.821 -5.041,0.168 -10.088,0.336 -15.114,-0.325 -0.249,-0.033 -0.545,-0.115 -0.743,-0.018 -0.255,0.124 -0.506,0.376 -0.614,0.633 -0.054,0.129 0.166,0.482 0.345,0.576 0.284,0.15 0.634,0.193 0.962,0.237 1.666,0.223 3.328,0.529 5.001,0.625 4.361,0.251 8.729,0.6 13.091,0.557 6.229,-0.061 12.406,-0.841 18.515,-2.115 0.93,-0.194 1.893,-0.423 2.9,-0.114 -2.067,0.915 -4.234,1.408 -6.45,1.709 -2.331,0.317 -4.66,0.663 -7,0.898 -2.256,0.227 -4.523,0.396 -6.79,0.466 -2.352,0.073 -4.711,0.058 -7.062,-0.034 -2.266,-0.088 -4.526,-0.326 -6.789,-0.492 -2.281,-0.167 -4.508,-0.859 -6.897,-0.536 0.355,0.152 0.698,0.355 1.068,0.449 1.874,0.473 3.747,0.951 5.634,1.365 6.173,1.352 12.394,2.425 18.741,2.134 4.279,-0.197 8.555,-0.571 12.817,-1.014 2.759,-0.287 5.5,-0.84 7.994,-2.146 0.955,-0.5 1.895,-1.118 2.665,-1.864 1.108,-1.073 0.962,-2.382 -0.32,-3.191 z m -53.99,-42.687 c 0.005,0.022 0,0.042 0.004,0.064 0.019,-0.005 0.029,-0.018 0.05,-0.022 z m -4.529,21.736 c 0.008,0.024 0.006,0.049 0.011,0.073 0.01,-0.012 0.021,-0.025 0.031,-0.037 z m -6.011,49.915 c 0.012,0.016 0.018,0.033 0.029,0.049 0.003,-0.027 0.006,-0.055 0.009,-0.082 0.001,-10e-4 -0.027,0.024 -0.034,0.029 l 0.035,-0.031 c -0.017,-0.024 -0.037,-0.048 -0.055,-0.072 0.005,0.036 0.009,0.072 0.014,0.108 z m 7.56,-44.344 c -0.004,-0.017 -0.003,-0.035 -0.005,-0.053 -0.013,10e-4 -0.025,0 -0.038,0.002 z m -8.94,4.271 c -2.03,-0.886 -4.072,-0.974 -6.076,0.062 -1.773,0.917 -3.109,2.267 -3.847,4.154 -0.129,0.331 -0.145,0.647 0.436,0.857 0.358,-0.318 0.794,-0.681 1.203,-1.072 0.546,-0.521 1.035,-1.107 1.611,-1.59 1.758,-1.475 3.743,-1.791 5.896,-1.017 3.925,1.411 6.23,5.223 5.619,9.346 -0.373,2.516 -1.612,4.571 -3.546,6.195 -1.057,0.888 -2.312,1.364 -3.697,1.416 -3.092,0.115 -6.03,-0.32 -8.544,-2.483 0.471,1.433 0.858,1.868 2.12,2.51 1.84,0.936 3.825,1.185 5.859,1.247 2.906,0.088 5.202,-1.036 6.989,-3.311 1.056,-1.345 1.841,-2.823 2.215,-4.478 0.551,-2.443 0.44,-4.84 -0.87,-7.07 -1.274,-2.168 -3.064,-3.761 -5.368,-4.766 z m 8.939,-4.272 c 0,0 -0.042,-0.051 -0.042,-0.051 -0.013,0.03 -0.037,0.044 -0.051,0.071 0.034,-0.006 0.058,-0.012 0.093,-0.02 z m -2.106,1.559 c 0.735,-0.644 1.613,-0.749 2.013,-1.538 -1.617,0.35 -1.635,0.375 -2.013,1.538 z m -22.218,-3.549 c -10e-4,10e-4 0.042,-0.038 0.042,-0.038 -0.022,-0.011 -0.04,-0.025 -0.065,-0.035 0.008,0.024 0.014,0.049 0.023,0.073 z m -4.582,-7.092 c -3.188,-4.01 -6.158,-8.166 -8.744,-12.592 -0.55,-0.94 -1.111,-1.875 -1.693,-2.795 -0.189,-0.298 -0.273,-0.81 -0.96,-0.601 0.498,1.002 0.896,2.016 1.471,2.917 1.982,3.108 3.919,6.254 6.074,9.241 2.645,3.666 5.492,7.186 8.256,10.767 0.033,0.042 0.097,0.06 0.156,0.083 -0.175,-0.521 -0.27,-1.096 -0.57,-1.529 -1.289,-1.861 -2.583,-3.722 -3.99,-5.491 z m -2.783,2.615 c 0.711,1.03 1.597,1.942 2.433,2.882 0.178,0.2 0.439,0.565 0.908,0.01 -3.9,-4.115 -6.374,-9.315 -10.069,-13.758 -0.303,0.646 0.066,0.946 0.273,1.257 2.136,3.212 4.262,6.433 6.455,9.609 z M 81.25,361.873 c -0.293,-0.365 -0.536,-0.668 -0.778,-0.97 -0.005,0.525 0.035,1.106 0.778,0.97 z m 52.959,34.129 c -0.016,0.011 -0.031,0.021 -0.047,0.032 -0.004,-0.004 0.044,0.043 0.044,0.043 -0.006,-0.03 0.007,-0.047 0.003,-0.075 z m 17.523,-14.591 c 2.06,-2.088 4.001,-4.293 5.976,-6.464 0.169,-0.186 0.554,-0.461 0.036,-0.862 -0.297,0.268 -0.618,0.528 -0.903,0.822 -1.109,1.145 -2.195,2.312 -3.309,3.452 -5.755,5.888 -11.807,11.444 -18.387,16.408 -0.422,0.318 -1.036,0.529 -0.936,1.235 1.639,-1.134 3.328,-2.203 4.895,-3.429 4.431,-3.467 8.676,-7.155 12.628,-11.162 z m 14.428,-14.147 c 0.056,-0.074 -0.056,-0.274 -0.116,-0.524 -0.366,0.404 -0.689,0.761 -1.013,1.118 0.11,0.099 0.221,0.198 0.331,0.298 0.27,-0.294 0.559,-0.574 0.798,-0.892 z m -31.957,28.809 c 0.004,0.004 -0.045,-0.044 -0.041,-0.04 -0.428,0.085 -0.861,0.166 -1.298,0.243 l -0.005,-0.004 c 0.007,0.016 0.007,0.034 0.012,0.051 0.014,-0.004 0.024,-10e-4 0.038,-0.006 0.431,-0.082 0.861,-0.165 1.294,-0.244 z M 64.239,375.648 c 0.183,0.111 0.378,0.203 0.569,0.301 0,-0.072 0,-0.145 0,-0.305 -0.173,-0.055 -0.374,-0.119 -0.575,-0.183 10e-4,0.065 -0.023,0.17 0.006,0.187 z m 64.777,72.764 c -0.019,-0.024 -0.036,-0.049 -0.055,-0.073 -0.002,0.041 0.008,0.077 0.004,0.118 z m -0.055,-0.073 c 0.049,-0.93 -0.359,-1.689 -0.918,-2.39 -0.125,0.961 0.365,1.688 0.918,2.39 z m 4.095,-1.838 c 0.004,-0.029 -0.001,-0.056 0.004,-0.086 0,0 -0.048,0.04 -0.048,0.04 0.014,0.016 0.03,0.031 0.044,0.046 z m 1.021,1.834 c -0.269,-0.697 -0.332,-0.976 -0.476,-1.204 -0.146,-0.232 -0.356,-0.425 -0.545,-0.63 -0.085,0.624 0.127,1.138 1.021,1.834 z m -2.572,-4.921 v 0 c -0.035,0.437 -0.026,0.851 0.518,0.971 0.065,-0.438 0.041,-0.836 -0.479,-1.004 0.072,-0.446 -0.007,-0.829 -0.444,-1.062 0,0 -0.162,0.137 -0.162,0.137 0.022,0.418 0.065,0.824 0.567,0.958 z m 0.536,1.01 c 0.001,-0.01 0.001,-0.02 0.003,-0.03 v 0 c -0.009,-0.002 -0.012,-0.007 -0.021,-0.009 -0.001,0.01 -0.001,0.019 -0.003,0.029 0.009,0.002 0.012,0.008 0.021,0.01 z m 0.48,0.948 c 0.047,-0.417 0.021,-0.799 -0.48,-0.948 -0.059,0.431 -0.049,0.825 0.48,0.948 z m 0.043,0.017 c -0.019,-0.004 -0.025,-0.013 -0.043,-0.017 -0.002,0.019 -10e-4,0.036 -0.004,0.055 z m 0.496,1.026 c -0.019,-0.005 -0.026,-0.015 -0.043,-0.02 -0.002,0.02 -0.001,0.039 -0.004,0.06 -0.001,0 0.047,-0.04 0.047,-0.04 z m -0.043,-0.02 c 0.043,-0.41 0.008,-0.782 -0.459,-0.947 -0.068,0.423 -0.045,0.801 0.459,0.947 z m -0.453,-1.005 c 0,0 -0.047,0.038 -0.047,0.038 0.017,0.005 0.024,0.016 0.04,0.021 0.003,-0.021 0.003,-0.039 0.007,-0.059 z m -3.017,3.996 c -0.023,-0.043 -0.046,-0.085 -0.07,-0.128 0.005,0.059 0.01,0.118 0.018,0.176 z m -0.477,-0.875 c 0.136,0.249 0.272,0.498 0.408,0.747 -0.028,-0.308 -0.074,-0.605 -0.408,-0.747 z m -0.054,-0.098 c 0,0 -0.051,0.045 -0.051,0.045 0.047,0.012 0.067,0.037 0.105,0.053 -0.018,-0.033 -0.036,-0.066 -0.054,-0.098 z m 0.796,1.275 c -0.061,-0.06 -0.132,-0.109 -0.201,-0.16 0.05,0.109 0.1,0.218 0.151,0.326 0.019,-0.058 0.069,-0.147 0.05,-0.166 z m -0.265,-0.301 c 0.001,-10e-4 -0.051,0.047 -0.051,0.047 0.039,0.03 0.076,0.063 0.116,0.093 -0.022,-0.047 -0.044,-0.093 -0.065,-0.14 z M 87.631,401.454 c 0.033,0.005 0.064,0.012 0.096,0.017 -0.019,-0.021 -0.041,-0.037 -0.06,-0.059 z m 3.868,1.536 c 0.023,0.021 0.05,0.033 0.073,0.055 10e-4,-0.001 0.035,-0.042 0.035,-0.042 -0.036,-0.004 -0.072,-0.009 -0.108,-0.013 z m 0,0 c -1.07,-0.971 -2.393,-1.316 -3.772,-1.519 1.014,1.108 2.373,1.365 3.772,1.519 z m 2.692,1.009 c 10e-4,-0.001 0.045,-0.05 0.045,-0.05 -0.04,0.004 -0.075,-0.005 -0.115,-0.003 0.023,0.019 0.047,0.034 0.07,0.053 z m -2.619,-0.954 c 0.033,-0.005 0.061,0.003 0.094,0 -0.019,-0.015 -0.039,-0.027 -0.058,-0.042 -0.001,0 -0.035,0.041 -0.036,0.042 z m 0.094,-0.001 c 0.72,0.575 1.51,0.952 2.455,0.902 -0.713,-0.59 -1.49,-1.005 -2.455,-0.902 z m -5.479,-2.033 c 0.379,0.441 0.868,0.51 1.405,0.41 -0.377,-0.458 -0.894,-0.425 -1.405,-0.41 z m 1.443,0.444 c 0.001,-10e-4 0.037,-0.043 0.037,-0.043 -0.026,0.005 -0.05,0.005 -0.075,0.01 0.012,0.014 0.026,0.018 0.038,0.033 z m -1.547,-0.441 c 0.035,-0.001 0.069,-0.002 0.104,-0.003 -0.017,-0.02 -0.037,-0.029 -0.053,-0.05 z m -0.001,0 c 0,0 0.051,-0.053 0.051,-0.053 -0.132,-0.049 -0.265,-0.097 -0.397,-0.146 0.115,0.067 0.231,0.133 0.346,0.199 z m 48.57,16.668 c -0.013,-0.029 -0.036,-0.047 -0.048,-0.077 -0.001,0 -0.037,0.044 -0.037,0.044 0.028,0.011 0.057,0.021 0.085,0.033 z m 1.652,1.299 c 4.433,2.581 9.02,4.857 13.79,6.748 3.907,1.549 7.904,2.835 12.014,3.731 1.227,0.267 2.485,0.394 3.732,0.563 0.132,0.018 0.283,-0.114 0.627,-0.264 -0.383,-0.206 -0.63,-0.41 -0.911,-0.48 -1.873,-0.466 -3.761,-0.874 -5.63,-1.357 -8.016,-2.07 -15.541,-5.362 -22.841,-9.214 -0.776,-0.41 -1.619,-0.692 -2.434,-1.027 0.328,0.711 1.05,0.949 1.653,1.3 z m 15.885,3.726 c -0.037,-0.002 -0.071,-0.011 -0.107,-0.014 0.02,0.022 0.042,0.038 0.062,0.061 z m -2.44,-0.982 c 0.671,0.582 1.449,0.904 2.332,0.968 -0.619,-0.705 -1.376,-1.078 -2.332,-0.968 z m -0.094,0.002 c 0.033,-0.005 0.062,0.002 0.094,-0.002 -0.018,-0.016 -0.039,-0.027 -0.058,-0.044 0,0 -0.008,0.01 -0.016,0.019 l 0.015,-0.019 c -0.028,-0.007 -0.056,-0.013 -0.084,-0.02 0.015,0.026 0.037,0.038 0.049,0.066 z m -16.189,-4.438 c 0.353,0.094 0.701,0.193 1.05,0.292 -0.256,-0.447 -0.635,-0.436 -1.05,-0.292 z m 0,0 c -0.019,-0.005 -0.038,-0.011 -0.057,-0.016 -0.001,10e-4 -0.004,0.004 -0.006,0.005 -0.009,0 -0.017,0.002 -0.026,0.002 -0.007,0.014 -0.014,0.028 -0.021,0.042 0.038,-0.014 0.073,-0.021 0.11,-0.033 z m 1.138,0.316 c -0.029,-0.008 -0.059,-0.016 -0.088,-0.025 0.016,0.027 0.036,0.038 0.051,0.069 0,-10e-4 0.036,-0.044 0.037,-0.044 z m 17.645,5.152 c 0.239,0.207 0.478,0.415 0.716,0.622 -0.03,-0.472 -0.31,-0.628 -0.716,-0.622 z m 0.752,0.654 c -0.002,-10e-4 -0.004,-0.003 -0.005,-0.005 0.005,10e-4 0.01,0.002 0.012,10e-4 0.161,0 0.316,0.004 0.47,0.008 -0.162,-0.004 -0.323,-0.007 -0.485,-0.011 -0.009,-0.008 -0.019,-0.017 -0.028,-0.025 0.001,0.01 0.005,0.015 0.005,0.024 z m -0.811,-0.705 c -0.001,10e-4 -0.047,0.048 -0.047,0.048 0.038,-0.003 0.069,0.004 0.105,0.003 -0.019,-0.017 -0.038,-0.034 -0.058,-0.051 z m -24.101,-41.431 c 2.689,-6.15 5.502,-12.234 9.203,-17.862 0.138,-0.21 0.274,-0.427 0.367,-0.658 0.109,-0.27 0.17,-0.559 0.252,-0.84 -0.69,0.367 -1.164,0.832 -1.508,1.377 -0.984,1.559 -1.958,3.127 -2.861,4.733 -3.46,6.152 -6.044,12.711 -8.852,19.165 -0.145,0.333 -0.139,0.733 -0.182,1.11 0.316,-0.44 0.683,-0.855 0.916,-1.335 0.918,-1.882 1.826,-3.771 2.665,-5.69 z m -3.633,7.096 c 0,0.001 0.042,0.037 0.042,0.037 0.005,-0.035 0.006,-0.071 0.01,-0.106 -0.016,0.023 -0.035,0.045 -0.052,0.069 z m 4.6,-22.094 c -0.004,0.105 -0.009,0.211 -0.013,0.316 0.086,-0.064 0.173,-0.128 0.259,-0.192 -0.082,-0.041 -0.164,-0.083 -0.246,-0.124 z m -0.07,0.358 c 0,0 0.053,0.042 0.053,0.042 0.001,-0.028 0.002,-0.056 0.004,-0.084 -0.019,0.014 -0.038,0.028 -0.057,0.042 z m -0.451,7.013 c -0.016,0.018 -0.032,0.036 -0.049,0.055 v 0 c 0.002,0.013 -0.003,0.023 -0.002,0.035 0.011,-0.003 0.017,-0.011 0.029,-0.014 0.008,-0.025 0.015,-0.051 0.022,-0.076 z m 0.139,-0.481 c -0.046,0.16 -0.092,0.321 -0.139,0.481 0.106,-0.119 0.212,-0.237 0.318,-0.356 -0.059,-0.042 -0.119,-0.084 -0.179,-0.125 z m 8.621,26.672 c 2.746,-1.267 5.477,-2.569 8.192,-3.903 2.866,-1.409 5.656,-2.985 8.574,-4.273 2.762,-1.22 5.644,-2.17 8.481,-3.217 0.574,-0.212 1.165,-0.355 1.825,-1.116 -0.748,0.128 -1.151,0.178 -1.546,0.266 -4.631,1.032 -8.953,2.863 -13.137,5.06 -4.895,2.571 -9.802,5.121 -14.704,7.68 0.86,0.268 1.599,-0.167 2.315,-0.497 z m -2.408,0.483 c -0.004,-0.004 0.046,0.04 0.046,0.04 0.015,-0.008 0.031,-0.016 0.046,-0.024 -0.031,-0.01 -0.06,-0.005 -0.092,-0.016 z m -32.696,36.577 c -0.843,0.906 -0.931,2.09 -1.175,3.216 0.635,-0.987 1.27,-1.974 1.175,-3.216 z m 0.053,-0.072 c 0,0 -0.049,-0.039 -0.049,-0.039 0.004,0.039 -0.007,0.072 -0.004,0.111 0.021,-0.023 0.031,-0.05 0.053,-0.072 z m 16.764,4.298 c -0.239,-0.918 0.059,-1.943 -0.533,-2.79 -0.096,0.985 -0.342,1.998 0.533,2.79 z m 0.362,2.272 c -0.11,-0.702 -0.219,-1.404 -0.329,-2.106 -0.123,0.727 -0.116,1.438 0.329,2.106 z m -0.329,-2.105 c 0.006,-0.036 0.008,-0.071 0.014,-0.107 l 0.004,-0.006 c -0.02,-0.017 -0.032,-0.036 -0.051,-0.053 0.009,0.033 0.012,0.067 0.023,0.1 0.003,0.021 0.007,0.044 0.01,0.066 z m 0.573,5.083 c 0,0.365 0,0.729 0,1.094 0.051,-0.002 0.102,-0.004 0.153,-0.005 -0.019,-0.364 -0.039,-0.729 -0.059,-1.093 -0.031,0.001 -0.063,0.003 -0.094,0.004 z M 97.518,421.724 c 0.049,-0.004 0.1,-0.005 0.148,-0.011 0.001,0 -0.048,-0.052 -0.048,-0.052 -0.034,0.02 -0.067,0.041 -0.1,0.063 z m -14.931,8.31 c -0.124,0.092 -0.147,0.32 -0.407,0.933 1.553,-0.946 2.682,-1.645 3.821,-2.325 3.45,-2.061 6.904,-4.113 10.355,-6.173 0.395,-0.236 0.776,-0.494 1.162,-0.745 -0.29,0.023 -0.59,0.02 -0.84,0.132 -4.987,2.225 -9.71,4.91 -14.091,8.178 z m 15.155,-8.405 c 0.381,-0.095 0.761,-0.191 1.141,-0.286 -0.41,0.002 -0.848,-0.105 -1.141,0.286 z m -0.077,0.083 c 0.022,-0.04 0.053,-0.051 0.077,-0.083 -0.041,0.01 -0.083,0.021 -0.124,0.031 -10e-4,0 0.048,0.053 0.047,0.052 z"
   id="path1" />
	
	
	
	
	
	
	
</g>
</svg>
